<mxfile host="65bd71144e">
    <diagram id="0q8ObWF2c9_AeSXeWdKU" name="Page-1">
        <mxGraphModel dx="1759" dy="883" grid="1" gridSize="10" guides="1" tooltips="1" connect="1" arrows="1" fold="1" page="1" pageScale="1" pageWidth="827" pageHeight="1169" math="0" shadow="0">
            <root>
                <mxCell id="0"/>
                <mxCell id="1" parent="0"/>
                <mxCell id="pTSNCBJR4zrSkXSXLxc4-6" style="edgeStyle=orthogonalEdgeStyle;rounded=0;sketch=1;orthogonalLoop=1;jettySize=auto;html=1;entryX=0;entryY=0.5;entryDx=0;entryDy=0;fontFamily=Comic Sans MS;fontSize=22;" parent="1" source="RB6gqGpe5amBSsFs8Qqi-2" target="pTSNCBJR4zrSkXSXLxc4-1" edge="1">
                    <mxGeometry relative="1" as="geometry"/>
                </mxCell>
                <mxCell id="pTSNCBJR4zrSkXSXLxc4-13" style="edgeStyle=orthogonalEdgeStyle;rounded=0;sketch=1;orthogonalLoop=1;jettySize=auto;html=1;entryX=0;entryY=0.5;entryDx=0;entryDy=0;fontFamily=Comic Sans MS;fontSize=22;" parent="1" source="RB6gqGpe5amBSsFs8Qqi-2" target="pTSNCBJR4zrSkXSXLxc4-4" edge="1">
                    <mxGeometry relative="1" as="geometry"/>
                </mxCell>
                <mxCell id="RB6gqGpe5amBSsFs8Qqi-2" value="vue" style="rounded=0;whiteSpace=wrap;html=1;fontFamily=Indie Flower;sketch=1;fontSize=25;fontSource=https%3A%2F%2Ffonts.googleapis.com%2Fcss%3Ffamily%3DIndie%2BFlower;" parent="1" vertex="1">
                    <mxGeometry x="100" y="286" width="120" height="50" as="geometry"/>
                </mxCell>
                <mxCell id="pTSNCBJR4zrSkXSXLxc4-7" style="edgeStyle=orthogonalEdgeStyle;rounded=0;sketch=1;orthogonalLoop=1;jettySize=auto;html=1;fontFamily=Comic Sans MS;fontSize=22;" parent="1" source="pTSNCBJR4zrSkXSXLxc4-1" target="pTSNCBJR4zrSkXSXLxc4-5" edge="1">
                    <mxGeometry relative="1" as="geometry"/>
                </mxCell>
                <mxCell id="pTSNCBJR4zrSkXSXLxc4-2" value="@vue/reactive" style="rounded=0;whiteSpace=wrap;html=1;fontFamily=Indie Flower;sketch=1;fontSize=22;fontSource=https%3A%2F%2Ffonts.googleapis.com%2Fcss%3Ffamily%3DIndie%2BFlower;" parent="1" vertex="1">
                    <mxGeometry x="820" y="180" width="210" height="60" as="geometry"/>
                </mxCell>
                <mxCell id="pTSNCBJR4zrSkXSXLxc4-3" value="@vue/compiler-core" style="rounded=0;whiteSpace=wrap;html=1;fontFamily=Indie Flower;sketch=1;fontSize=22;fontSource=https%3A%2F%2Ffonts.googleapis.com%2Fcss%3Ffamily%3DIndie%2BFlower;" parent="1" vertex="1">
                    <mxGeometry x="520" y="380" width="230" height="60" as="geometry"/>
                </mxCell>
                <mxCell id="pTSNCBJR4zrSkXSXLxc4-14" style="edgeStyle=orthogonalEdgeStyle;rounded=0;sketch=1;orthogonalLoop=1;jettySize=auto;html=1;entryX=0;entryY=0.5;entryDx=0;entryDy=0;fontFamily=Comic Sans MS;fontSize=22;" parent="1" source="pTSNCBJR4zrSkXSXLxc4-4" target="pTSNCBJR4zrSkXSXLxc4-3" edge="1">
                    <mxGeometry relative="1" as="geometry"/>
                </mxCell>
                <mxCell id="pTSNCBJR4zrSkXSXLxc4-4" value="@vue/compiler-dom" style="rounded=0;whiteSpace=wrap;html=1;fontFamily=Indie Flower;sketch=1;fontSize=22;fontSource=https%3A%2F%2Ffonts.googleapis.com%2Fcss%3Ffamily%3DIndie%2BFlower;" parent="1" vertex="1">
                    <mxGeometry x="220" y="380" width="240" height="60" as="geometry"/>
                </mxCell>
                <mxCell id="pTSNCBJR4zrSkXSXLxc4-8" style="edgeStyle=orthogonalEdgeStyle;rounded=0;sketch=1;orthogonalLoop=1;jettySize=auto;html=1;exitX=1;exitY=0.5;exitDx=0;exitDy=0;entryX=0;entryY=0.5;entryDx=0;entryDy=0;fontFamily=Comic Sans MS;fontSize=22;" parent="1" source="pTSNCBJR4zrSkXSXLxc4-5" target="pTSNCBJR4zrSkXSXLxc4-2" edge="1">
                    <mxGeometry relative="1" as="geometry"/>
                </mxCell>
                <mxCell id="pTSNCBJR4zrSkXSXLxc4-5" value="@vue/runtime-core" style="rounded=0;whiteSpace=wrap;html=1;fontFamily=Indie Flower;sketch=1;fontSize=22;fontSource=https%3A%2F%2Ffonts.googleapis.com%2Fcss%3Ffamily%3DIndie%2BFlower;" parent="1" vertex="1">
                    <mxGeometry x="520" y="180" width="230" height="60" as="geometry"/>
                </mxCell>
                <mxCell id="pTSNCBJR4zrSkXSXLxc4-1" value="@vue/runtime-dom" style="rounded=0;whiteSpace=wrap;html=1;fontFamily=Indie Flower;sketch=1;fontSize=22;fontSource=https%3A%2F%2Ffonts.googleapis.com%2Fcss%3Ffamily%3DIndie%2BFlower;" parent="1" vertex="1">
                    <mxGeometry x="220" y="180" width="240" height="60" as="geometry"/>
                </mxCell>
                <mxCell id="pTSNCBJR4zrSkXSXLxc4-15" value="Vue3 dependency graph" style="text;html=1;resizable=0;autosize=1;align=center;verticalAlign=middle;points=[];fillColor=none;strokeColor=none;rounded=0;sketch=1;fontFamily=Indie Flower;fontSize=26;fontSource=https%3A%2F%2Ffonts.googleapis.com%2Fcss%3Ffamily%3DIndie%2BFlower;" parent="1" vertex="1">
                    <mxGeometry x="455" y="75" width="270" height="40" as="geometry"/>
                </mxCell>
            </root>
        </mxGraphModel>
    </diagram>
</mxfile>